<?xml version="1.0" encoding="utf-8"?>
<!-- Generator: Adobe Illustrator 22.1.0, SVG Export Plug-In . SVG Version: 6.00 Build 0)  -->
<svg version="1.1"
	 id="Layer_1" xmlns:cc="http://creativecommons.org/ns#" xmlns:dc="http://purl.org/dc/elements/1.1/" xmlns:inkscape="http://www.inkscape.org/namespaces/inkscape" xmlns:rdf="http://www.w3.org/1999/02/22-rdf-syntax-ns#" xmlns:sodipodi="http://sodipodi.sourceforge.net/DTD/sodipodi-0.dtd" xmlns:svg="http://www.w3.org/2000/svg"
	 xmlns="http://www.w3.org/2000/svg" xmlns:xlink="http://www.w3.org/1999/xlink" x="0px" y="0px" viewBox="0 0 50 50"
	 style="enable-background:new 0 0 50 50;" xml:space="preserve">
<style type="text/css">
	.st0{fill:#BE6E85;}
</style>
<g transform="translate(0,-952.36218)">
	<path class="st0" d="M6.7,962.2c-2.3,0-4.2,1.9-4.2,4.2v22c0,2.3,1.9,4.2,4.2,4.2h36.6c2.3,0,4.2-1.9,4.2-4.2v-22
		c0-2.3-1.9-4.2-4.2-4.2H6.7z M6.7,964.3h36.6c1.2,0,2.1,0.9,2.1,2.1v22c0,1.2-0.9,2.1-2.1,2.1H6.7c-1.2,0-2.1-0.9-2.1-2.1v-22
		C4.6,965.2,5.5,964.3,6.7,964.3z M9,968.5c-0.6,0-1,0.5-1,1.1c0,0.3,0.1,0.6,0.4,0.7l7.8,7.2l-7.8,6.9c-0.5,0.3-0.6,1-0.2,1.5
		c0.3,0.5,1,0.6,1.5,0.2c0.1,0,0.1-0.1,0.1-0.1l7.9-7.1l4.4,4.1c1.6,1.5,4.1,1.5,5.8,0l4.5-4.1l7.9,7.1c0.4,0.4,1.1,0.4,1.5,0.1
		c0.4-0.4,0.4-1.1,0.1-1.5c0,0-0.1-0.1-0.1-0.1l-7.8-6.9l7.8-7.2c0.4-0.4,0.5-1.1,0.1-1.5c-0.4-0.4-1.1-0.5-1.5-0.1l0,0l-13.8,12.7
		c-0.9,0.8-2.1,0.8-2.9,0L9.7,968.7C9.5,968.5,9.3,968.4,9,968.5z"/>
</g>
</svg>
